<?xml version="1.0" encoding="UTF-8" standalone="no"?>
<!DOCTYPE svg PUBLIC "-//W3C//DTD SVG 1.1//EN"
 "http://www.w3.org/Graphics/SVG/1.1/DTD/svg11.dtd">
<!-- Generated by graphviz version 2.38.0 (20140413.2041)
 -->
<!-- Title: %3 Pages: 1 -->
<svg width="242pt" height="116pt"
 viewBox="0.00 0.00 242.50 116.00" xmlns="http://www.w3.org/2000/svg" xmlns:xlink="http://www.w3.org/1999/xlink">
<g id="graph0" class="graph" transform="scale(1 1) rotate(0) translate(4 112)">
<title>%3</title>
<polygon fill="white" stroke="none" points="-4,4 -4,-112 238.497,-112 238.497,4 -4,4"/>
<!-- id -->
<g id="node1" class="node"><title>id</title>
<ellipse fill="none" stroke="black" cx="27" cy="-90" rx="27" ry="18"/>
<text text-anchor="middle" x="27" y="-86.3" font-family="Times,serif" font-size="14.00">Id</text>
</g>
<!-- customer -->
<g id="node2" class="node"><title>customer</title>
<polygon fill="none" stroke="black" points="147,-36 77,-36 77,-0 147,-0 147,-36"/>
<text text-anchor="middle" x="112" y="-14.3" font-family="Times,serif" font-size="14.00">Customer</text>
</g>
<!-- id&#45;&gt;customer -->
<g id="edge1" class="edge"><title>id&#45;&gt;customer</title>
<path fill="none" stroke="black" d="M43.3889,-75.5033C56.9932,-64.2998 76.4253,-48.2968 91.1386,-36.1799"/>
</g>
<!-- address -->
<g id="node3" class="node"><title>address</title>
<ellipse fill="none" stroke="black" cx="112" cy="-90" rx="39.7935" ry="18"/>
<text text-anchor="middle" x="112" y="-86.3" font-family="Times,serif" font-size="14.00">Address</text>
</g>
<!-- address&#45;&gt;customer -->
<g id="edge2" class="edge"><title>address&#45;&gt;customer</title>
<path fill="none" stroke="black" d="M112,-71.6966C112,-60.8463 112,-46.9167 112,-36.1043"/>
</g>
<!-- name -->
<g id="node4" class="node"><title>name</title>
<ellipse fill="none" stroke="black" cx="202" cy="-90" rx="32.4942" ry="18"/>
<text text-anchor="middle" x="202" y="-86.3" font-family="Times,serif" font-size="14.00">Name</text>
</g>
<!-- name&#45;&gt;customer -->
<g id="edge3" class="edge"><title>name&#45;&gt;customer</title>
<path fill="none" stroke="black" d="M183.787,-74.8345C169.405,-63.6486 149.284,-47.9987 134.002,-36.1127"/>
</g>
</g>
</svg>
