<?xml version="1.0" encoding="UTF-8" standalone="no"?>
<!DOCTYPE svg PUBLIC "-//W3C//DTD SVG 1.1//EN"
 "http://www.w3.org/Graphics/SVG/1.1/DTD/svg11.dtd">
<!-- Generated by graphviz version 2.38.0 (20140413.2041)
 -->
<!-- Title: %3 Pages: 1 -->
<svg width="287pt" height="44pt"
 viewBox="0.00 0.00 286.72 44.00" xmlns="http://www.w3.org/2000/svg" xmlns:xlink="http://www.w3.org/1999/xlink">
<g id="graph0" class="graph" transform="scale(1 1) rotate(0) translate(4 40)">
<title>%3</title>
<polygon fill="white" stroke="none" points="-4,4 -4,-40 282.724,-40 282.724,4 -4,4"/>
<!-- relation -->
<g id="node1" class="node"><title>relation</title>
<polygon fill="none" stroke="black" points="147.362,-36 106.137,-18 147.362,-3.55271e-15 188.587,-18 147.362,-36"/>
<text text-anchor="middle" x="147.362" y="-14.3" font-family="Times,serif" font-size="14.00">owns</text>
</g>
<!-- car -->
<g id="node3" class="node"><title>car</title>
<polygon fill="none" stroke="black" points="278.724,-36 224.724,-36 224.724,-0 278.724,-0 278.724,-36"/>
<text text-anchor="middle" x="251.724" y="-14.3" font-family="Times,serif" font-size="14.00">Car</text>
</g>
<!-- relation&#45;&gt;car -->
<g id="edge2" class="edge"><title>relation&#45;&gt;car</title>
<path fill="none" stroke="black" d="M188.818,-18C200.889,-18 213.793,-18 224.679,-18"/>
</g>
<!-- customer -->
<g id="node2" class="node"><title>customer</title>
<polygon fill="none" stroke="black" points="70,-36 0,-36 0,-0 70,-0 70,-36"/>
<text text-anchor="middle" x="35" y="-14.3" font-family="Times,serif" font-size="14.00">Customer</text>
</g>
<!-- customer&#45;&gt;relation -->
<g id="edge1" class="edge"><title>customer&#45;&gt;relation</title>
<path fill="none" stroke="black" d="M70.0128,-18C81.4129,-18 94.2338,-18 106.067,-18"/>
</g>
</g>
</svg>
