<?xml version="1.0" encoding="UTF-8" standalone="no"?>
<!DOCTYPE svg PUBLIC "-//W3C//DTD SVG 1.1//EN"
 "http://www.w3.org/Graphics/SVG/1.1/DTD/svg11.dtd">
<!-- Generated by graphviz version 2.38.0 (20140413.2041)
 -->
<!-- Title: %3 Pages: 1 -->
<svg width="517pt" height="122pt"
 viewBox="0.00 0.00 516.96 122.14" xmlns="http://www.w3.org/2000/svg" xmlns:xlink="http://www.w3.org/1999/xlink">
<g id="graph0" class="graph" transform="scale(1 1) rotate(0) translate(4 118.137)">
<title>%3</title>
<polygon fill="white" stroke="none" points="-4,4 -4,-118.137 512.964,-118.137 512.964,4 -4,4"/>
<!-- 0 -->
<g id="node1" class="node"><title>0</title>
<ellipse fill="lightgreen" stroke="lightgreen" cx="27.3015" cy="-33.3986" rx="27.1044" ry="27.1044"/>
<text text-anchor="middle" x="27.3015" y="-29.1986" font-family="Times,serif" font-size="14.00">Emil</text>
</g>
<!-- 1 -->
<g id="node2" class="node"><title>1</title>
<ellipse fill="lightgreen" stroke="lightgreen" cx="185.497" cy="-83.3986" rx="30.9793" ry="30.9793"/>
<text text-anchor="middle" x="185.497" y="-79.1986" font-family="Times,serif" font-size="14.00">Johan</text>
</g>
<!-- 0&#45;&gt;1 -->
<g id="edge1" class="edge"><title>0&#45;&gt;1</title>
<path fill="none" stroke="black" d="M53.397,-41.432C78.4678,-49.4575 117.336,-61.8997 146.25,-71.1553"/>
<polygon fill="black" stroke="black" points="145.432,-74.5683 156.023,-74.2837 147.566,-67.9016 145.432,-74.5683"/>
<text text-anchor="middle" x="104.681" y="-84.1986" font-family="Times,serif" font-size="14.00">KNOWS</text>
<text text-anchor="middle" x="104.681" y="-70.1986" font-family="Times,serif" font-size="14.00">since: 2001</text>
</g>
<!-- 2 -->
<g id="node3" class="node"><title>2</title>
<ellipse fill="lightgreen" stroke="lightgreen" cx="326.451" cy="-21.3986" rx="21.2978" ry="21.2978"/>
<text text-anchor="middle" x="326.451" y="-17.1986" font-family="Times,serif" font-size="14.00">Ian</text>
</g>
<!-- 0&#45;&gt;2 -->
<g id="edge2" class="edge"><title>0&#45;&gt;2</title>
<path fill="none" stroke="black" d="M54.3429,-28.5928C79.8298,-24.1501 119.808,-17.8736 154.758,-15.3986 182.013,-13.4686 188.923,-14.649 216.236,-15.3986 242.826,-16.1285 273.016,-17.8561 294.906,-19.271"/>
<polygon fill="black" stroke="black" points="294.724,-22.7665 304.933,-19.9347 295.186,-15.7817 294.724,-22.7665"/>
<text text-anchor="middle" x="185.497" y="-32.1986" font-family="Times,serif" font-size="14.00">KNOWS</text>
<text text-anchor="middle" x="185.497" y="-18.1986" font-family="Times,serif" font-size="14.00">rating: 5</text>
</g>
<!-- 1&#45;&gt;2 -->
<g id="edge3" class="edge"><title>1&#45;&gt;2</title>
<path fill="none" stroke="black" d="M213.95,-71.1494C238.002,-60.4176 272.817,-44.8832 297.125,-34.0372"/>
<polygon fill="black" stroke="black" points="298.813,-37.117 306.519,-29.846 295.96,-30.7245 298.813,-37.117"/>
<text text-anchor="middle" x="259.901" y="-65.1986" font-family="Times,serif" font-size="14.00">KNOWS</text>
</g>
<!-- 3 -->
<g id="node4" class="node"><title>3</title>
<ellipse fill="lightgreen" stroke="lightgreen" cx="326.451" cy="-83.3986" rx="22.7687" ry="22.7687"/>
<text text-anchor="middle" x="326.451" y="-79.1986" font-family="Times,serif" font-size="14.00">Rik</text>
</g>
<!-- 1&#45;&gt;3 -->
<g id="edge4" class="edge"><title>1&#45;&gt;3</title>
<path fill="none" stroke="black" d="M216.306,-83.3986C238.988,-83.3986 270.154,-83.3986 293.376,-83.3986"/>
<polygon fill="black" stroke="black" points="293.428,-86.8987 303.428,-83.3986 293.428,-79.8987 293.428,-86.8987"/>
<text text-anchor="middle" x="259.901" y="-86.1986" font-family="Times,serif" font-size="14.00">KNOWS</text>
</g>
<!-- 4 -->
<g id="node5" class="node"><title>4</title>
<ellipse fill="lightgreen" stroke="lightgreen" cx="472.815" cy="-54.3986" rx="36.2992" ry="36.2992"/>
<text text-anchor="middle" x="472.815" y="-50.1986" font-family="Times,serif" font-size="14.00">Allison</text>
</g>
<!-- 2&#45;&gt;4 -->
<g id="edge6" class="edge"><title>2&#45;&gt;4</title>
<path fill="none" stroke="black" d="M347.524,-25.9872C368.134,-30.6983 400.879,-38.1835 427.586,-44.2884"/>
<polygon fill="black" stroke="black" points="426.96,-47.7355 437.488,-46.552 428.52,-40.9115 426.96,-47.7355"/>
<text text-anchor="middle" x="393" y="-45.1986" font-family="Times,serif" font-size="14.00">KNOWS</text>
</g>
<!-- 3&#45;&gt;4 -->
<g id="edge5" class="edge"><title>3&#45;&gt;4</title>
<path fill="none" stroke="black" d="M349.064,-79.0571C369.618,-74.9281 401.166,-68.5907 427.132,-63.3746"/>
<polygon fill="black" stroke="black" points="428.024,-66.7655 437.139,-61.3645 426.645,-59.9026 428.024,-66.7655"/>
<text text-anchor="middle" x="393" y="-78.1986" font-family="Times,serif" font-size="14.00">KNOWS</text>
</g>
</g>
</svg>
